<?xml version="1.0" standalone="no"?>
<!DOCTYPE svg PUBLIC "-//W3C//DTD SVG 20010904//EN"
 "http://www.w3.org/TR/2001/REC-SVG-20010904/DTD/svg10.dtd">
<svg version="1.0" xmlns="http://www.w3.org/2000/svg"
 width="162.000000pt" height="161.000000pt" viewBox="0 0 162.000000 161.000000"
 preserveAspectRatio="xMidYMid meet">

<g transform="translate(0.000000,161.000000) scale(0.100000,-0.100000)"
fill="#000000" stroke="none">
<path d="M686 1554 c-123 -27 -293 -107 -336 -159 -6 -8 18 5 55 29 163 108
385 150 568 110 93 -20 236 -90 312 -151 227 -185 324 -491 246 -778 -67 -245
-280 -454 -531 -522 -89 -24 -281 -24 -370 1 -277 75 -481 293 -546 583 -34
154 -4 345 81 503 22 42 27 56 13 40 -34 -40 -85 -159 -103 -243 -13 -60 -16
-109 -13 -205 4 -115 8 -136 39 -217 44 -116 110 -215 200 -300 96 -90 176
-140 273 -171 370 -118 768 49 933 392 101 208 100 487 -2 689 -152 300 -496
468 -819 399z"/>
<path d="M720 1510 c0 -5 -14 -25 -30 -44 -27 -31 -29 -37 -18 -55 17 -27 52
-29 43 -2 -4 13 0 20 14 24 15 3 22 -1 27 -17 7 -20 8 -20 16 6 8 22 5 35 -12
63 -21 34 -40 46 -40 25z m20 -50 c0 -5 -4 -10 -10 -10 -5 0 -10 5 -10 10 0 6
5 10 10 10 6 0 10 -4 10 -10z"/>
<path d="M910 1495 c-15 -18 -7 -31 32 -51 28 -14 29 -17 14 -26 -10 -5 -29
-7 -44 -4 l-27 6 24 -20 c16 -14 35 -20 55 -18 42 4 47 34 9 64 l-28 24 33 -6
c41 -8 41 -1 -4 25 -42 25 -48 26 -64 6z"/>
<path d="M598 1473 c-10 -3 -18 -5 -18 -6 0 -1 9 -27 19 -57 l19 -55 11 29
c11 28 7 82 -7 89 -4 2 -15 2 -24 0z"/>
<path d="M1050 1440 c0 -11 -7 -34 -15 -50 -14 -26 -14 -30 -1 -30 8 0 18 5
21 10 13 20 27 10 21 -15 -5 -21 -3 -25 18 -25 25 0 36 20 42 73 2 28 2 28
-22 12 -25 -16 -25 -16 -22 12 2 23 -1 29 -19 31 -18 3 -23 -2 -23 -18z"/>
<path d="M474 1424 c-21 -15 -41 -28 -43 -30 -2 -2 8 -17 23 -34 14 -17 26
-36 26 -41 0 -5 5 -9 11 -9 7 0 8 11 4 31 -5 22 -4 29 4 25 6 -4 11 -16 11
-27 0 -10 5 -19 11 -19 7 0 10 12 7 30 -5 35 5 39 20 8 10 -21 11 -20 11 12 1
34 -21 80 -38 80 -5 0 -26 -12 -47 -26z"/>
<path d="M1169 1361 c-33 -34 -38 -67 -9 -76 27 -9 94 11 115 35 18 20 18 21
-1 35 -24 18 -34 19 -34 2 0 -18 -36 -50 -49 -46 -7 3 -3 18 9 42 24 44 10 48
-31 8z"/>
<path d="M360 1345 c0 -8 -7 -15 -15 -15 -30 0 -25 -27 11 -65 31 -33 38 -37
48 -24 6 8 21 19 33 24 16 7 20 14 13 25 -7 12 -12 11 -29 -5 -12 -10 -24 -15
-29 -11 -4 4 1 13 11 20 17 13 23 36 9 36 -4 0 -13 -5 -20 -12 -9 -9 -12 -9
-12 -1 0 7 5 15 10 18 17 10 11 25 -10 25 -11 0 -20 -7 -20 -15z"/>
<path d="M780 1349 c-138 -13 -257 -68 -350 -161 -99 -101 -150 -230 -150
-385 0 -146 48 -269 146 -373 107 -113 242 -170 399 -170 155 1 262 45 371
154 214 214 219 556 12 773 -119 123 -262 178 -428 162z m56 -69 c4 -16 10
-27 15 -25 4 3 6 12 2 20 -3 9 1 15 10 15 19 0 35 -22 19 -28 -6 -2 -9 -9 -6
-16 3 -8 -2 -16 -10 -19 -13 -5 -14 -10 -2 -38 8 -18 23 -36 35 -41 11 -4 21
-14 21 -22 0 -45 -48 -8 -75 58 -13 30 -19 36 -25 25 -5 -7 -7 -23 -4 -35 4
-17 -1 -25 -27 -38 -18 -9 -36 -16 -42 -16 -10 0 -5 42 8 73 5 13 3 16 -8 11
-8 -3 -18 -1 -21 5 -4 5 3 12 13 16 11 3 18 12 15 19 -3 8 7 18 25 26 19 7 28
17 24 26 -3 8 1 14 11 14 10 0 19 -11 22 -30z m72 -232 c38 -32 41 -33 68 -13
27 20 55 18 85 -8 42 -35 49 -58 53 -186 4 -104 7 -122 25 -140 12 -12 21 -32
21 -44 0 -26 -41 -87 -84 -127 l-27 -25 -19 25 c-15 20 -20 22 -34 11 -9 -7
-16 -19 -16 -26 0 -27 -73 -27 -144 -1 -47 18 -88 26 -131 26 -34 0 -83 6
-110 14 -47 15 -105 59 -105 80 0 6 8 1 18 -10 40 -49 64 -56 199 -56 71 0
133 -5 140 -10 8 -6 21 -4 39 5 18 9 23 16 15 22 -9 5 -8 12 5 26 12 14 31 19
66 19 39 0 54 5 69 23 30 35 61 97 48 97 -6 0 -9 9 -6 23 3 12 1 31 -3 42 -8
18 -9 18 -10 -5 -1 -30 -34 -128 -46 -139 -19 -17 -78 -31 -88 -21 -16 16 -41
12 -60 -9 -20 -21 -63 -33 -95 -24 -14 4 -24 16 -28 36 l-6 30 -11 -33 c-7
-23 -20 -36 -39 -43 -37 -12 -77 -1 -77 21 -1 16 -2 16 -14 -1 -10 -13 -24
-17 -47 -15 -29 3 -37 10 -59 54 -14 28 -30 49 -36 47 -14 -5 -26 79 -18 115
9 38 23 52 71 73 34 14 46 27 59 58 18 47 37 55 99 45 45 -6 47 -5 81 34 50
58 93 61 152 10z m-64 -592 c-3 -8 -1 -17 5 -21 6 -3 11 -1 11 4 0 12 30 15
31 4 0 -5 2 -20 4 -35 2 -15 -1 -30 -6 -33 -5 -4 -10 9 -10 27 l-2 33 -7 -35
c-4 -19 -8 -29 -9 -21 -1 11 -4 11 -17 0 -13 -10 -17 -10 -25 2 -5 8 -9 10 -9
4 0 -5 -11 -11 -25 -11 -29 -2 -32 4 -8 21 16 12 11 35 -8 35 -6 0 -8 -4 -5
-9 3 -4 -1 -16 -8 -27 -18 -24 -106 -29 -106 -5 0 11 -3 10 -14 -4 -12 -16
-16 -17 -30 -6 -9 7 -16 9 -16 3 0 -5 -11 -9 -25 -8 -14 0 -25 7 -25 14 0 17
-10 15 -27 -5 -12 -16 -13 -14 -8 17 14 80 28 93 39 36 4 -19 14 -37 23 -40
13 -5 14 -4 3 9 -13 16 -7 45 10 45 7 0 9 -8 5 -20 -4 -11 -2 -20 4 -20 6 0
11 6 11 14 0 24 22 30 37 11 12 -18 13 -18 13 -1 0 13 5 17 19 13 13 -3 21 1
24 12 3 9 5 -1 6 -23 1 -33 3 -37 16 -26 12 10 13 15 4 20 -18 12 2 18 44 15
30 -3 37 0 33 11 -3 8 -1 14 4 14 6 0 10 -10 11 -22 1 -21 2 -21 12 4 6 15 14
25 18 22 5 -2 6 -11 3 -18z m193 12 c11 15 14 15 23 2 15 -23 12 -34 -5 -20
-8 7 -15 8 -15 2 0 -5 7 -15 15 -22 17 -15 20 -46 4 -56 -6 -3 -16 -1 -22 5
-7 7 -14 7 -24 0 -9 -9 -17 -8 -28 1 -12 10 -15 10 -15 -1 -1 -10 -5 -9 -14 4
-14 18 -15 18 -26 0 -9 -14 -10 -8 -5 32 10 71 20 75 35 13 l8 -33 1 31 c1 40
20 59 40 40 13 -13 16 -13 28 2z m88 -52 c1 -49 -8 -60 -20 -23 l-7 22 -8 -25
c-6 -20 -8 -15 -9 26 -1 57 4 68 28 54 11 -6 16 -23 16 -54z"/>
<path d="M790 1250 c-13 -8 -13 -10 2 -10 9 0 20 5 23 10 8 13 -5 13 -25 0z"/>
<path d="M785 1210 c4 -6 11 -8 16 -5 14 9 11 15 -7 15 -8 0 -12 -5 -9 -10z"/>
<path d="M777 1173 c-12 -12 -7 -22 8 -17 8 4 15 10 15 15 0 11 -14 12 -23 2z"/>
<path d="M900 981 c0 -16 -4 -41 -10 -55 -11 -31 4 -36 20 -7 13 25 13 91 0
91 -5 0 -10 -13 -10 -29z"/>
<path d="M954 976 c-9 -37 -1 -70 19 -74 15 -3 17 1 10 25 -4 15 -7 38 -6 51
1 29 -15 28 -23 -2z"/>
<path d="M750 942 c0 -44 19 -76 42 -71 14 4 13 10 -6 56 -11 29 -24 53 -28
53 -5 0 -8 -17 -8 -38z"/>
<path d="M570 878 c0 -15 5 -30 11 -33 16 -11 17 -2 3 30 l-13 30 -1 -27z"/>
<path d="M906 848 c-12 -59 -16 -158 -6 -158 6 0 10 24 10 55 0 31 7 69 15 84
13 27 11 41 -6 41 -5 0 -11 -10 -13 -22z"/>
<path d="M734 826 c-3 -14 -1 -33 5 -43 10 -17 10 -17 11 2 0 11 3 30 6 43 4
13 2 22 -5 22 -6 0 -13 -11 -17 -24z"/>
<path d="M590 781 c0 -12 5 -21 10 -21 6 0 10 6 10 14 0 8 -4 18 -10 21 -5 3
-10 -3 -10 -14z"/>
<path d="M610 410 c0 -11 5 -20 10 -20 6 0 10 9 10 20 0 11 -4 20 -10 20 -5 0
-10 -9 -10 -20z"/>
<path d="M660 410 c0 -13 5 -18 15 -14 8 4 15 10 15 14 0 4 -7 10 -15 14 -10
4 -15 -1 -15 -14z"/>
<path d="M832 410 c0 -14 2 -19 5 -12 2 6 2 18 0 25 -3 6 -5 1 -5 -13z"/>
<path d="M988 443 c-2 -10 -2 -26 0 -36 3 -14 7 -16 18 -6 11 9 18 9 29 -1 23
-19 32 -2 9 18 -46 41 -51 44 -56 25z"/>
<path d="M1090 445 c0 -8 5 -15 10 -15 6 0 10 7 10 15 0 8 -4 15 -10 15 -5 0
-10 -7 -10 -15z"/>
<path d="M1290 1289 c0 -5 -15 -24 -32 -41 -33 -31 -29 -33 27 -13 14 5 11 -1
-10 -19 -32 -27 -25 -33 22 -16 l28 10 -24 -20 -23 -20 29 0 c29 0 73 34 73
56 0 14 -63 74 -78 74 -7 0 -12 -5 -12 -11z"/>
<path d="M272 1242 c-13 -4 -23 -9 -23 -12 -1 -22 17 -62 37 -81 28 -26 46
-17 63 32 9 25 7 33 -9 49 -21 21 -30 22 -68 12z m43 -44 c23 -33 -1 -36 -33
-4 -26 25 -26 26 -5 26 12 0 29 -10 38 -22z"/>
<path d="M1351 1144 c-33 -18 -40 -25 -27 -30 21 -8 74 2 93 17 10 9 10 15 2
25 -14 18 -15 17 -68 -12z"/>
<path d="M175 1130 c-3 -4 1 -25 9 -46 7 -22 11 -44 9 -50 -6 -16 55 -23 68
-8 8 9 5 16 -11 24 -17 9 -19 14 -9 26 7 9 20 12 33 8 19 -6 20 -5 6 12 -8 10
-15 21 -17 23 -5 8 -84 18 -88 11z m55 -40 c0 -5 -4 -10 -10 -10 -5 0 -10 5
-10 10 0 6 5 10 10 10 6 0 10 -4 10 -10z"/>
<path d="M1434 1087 c-3 -8 -4 -23 -2 -33 2 -13 -6 -20 -30 -25 -39 -8 -46
-14 -37 -28 9 -15 46 -13 69 4 14 11 24 12 39 3 17 -9 19 -8 12 8 -4 11 -10
32 -14 48 -7 33 -28 46 -37 23z"/>
<path d="M120 977 c0 -30 36 -77 59 -77 20 0 54 35 65 65 7 18 5 18 -17 -3
-31 -29 -43 -28 -78 9 l-29 31 0 -25z"/>
<path d="M1456 982 c-2 -4 -1 -14 5 -22 15 -25 11 -29 -31 -36 -25 -4 -40 -12
-40 -21 0 -23 31 -27 64 -9 18 9 39 14 48 11 15 -6 16 -3 6 27 -6 18 -12 39
-14 46 -4 13 -30 17 -38 4z"/>
<path d="M133 865 c-18 -8 -33 -18 -33 -22 0 -4 16 -25 36 -46 28 -30 39 -36
59 -31 31 8 35 44 5 44 -13 0 -20 7 -20 20 0 14 7 20 22 20 13 0 18 4 13 9
-19 17 -51 20 -82 6z m37 -29 c0 -3 -4 -8 -10 -11 -5 -3 -10 -1 -10 4 0 6 5
11 10 11 6 0 10 -2 10 -4z"/>
<path d="M1445 851 c-11 -5 -27 -20 -34 -34 -12 -22 -12 -29 -1 -42 36 -43 92
-37 111 12 9 24 7 31 -16 50 -29 25 -31 26 -60 14z m55 -45 c0 -16 -21 -26
-56 -26 -28 0 -31 15 -6 29 25 15 62 13 62 -3z"/>
<path d="M1390 625 c-14 -37 -13 -42 13 -48 12 -2 30 -8 40 -12 13 -5 17 -2
17 12 0 10 5 24 11 30 8 8 8 13 -1 18 -7 4 -14 -1 -17 -14 -3 -11 -9 -19 -13
-16 -5 3 -6 15 -2 28 5 20 4 21 -13 7 -10 -8 -16 -10 -12 -3 4 6 3 14 -3 18
-5 3 -15 -6 -20 -20z"/>
<path d="M173 633 c-29 -11 4 -63 40 -63 18 0 22 5 31 43 6 25 4 27 -26 26
-18 0 -39 -3 -45 -6z m57 -13 c0 -15 -38 -32 -45 -20 -5 8 17 23 43 29 1 1 2
-3 2 -9z"/>
<path d="M225 542 c-16 -9 -31 -17 -32 -18 -1 0 1 -12 5 -27 8 -32 28 -35 24
-4 -2 20 -2 21 11 5 18 -23 31 -23 23 -2 -5 14 -4 15 9 4 23 -19 27 -7 9 28
-8 18 -16 32 -17 32 -1 0 -15 -8 -32 -18z"/>
<path d="M1353 533 c-17 -35 -16 -43 2 -43 8 0 15 7 15 15 0 19 10 19 36 0 21
-14 34 -11 34 7 0 5 -13 14 -30 19 -16 6 -30 15 -30 20 0 18 -15 8 -27 -18z"/>
<path d="M1316 473 c-2 -2 -1 -17 3 -31 5 -15 6 -33 4 -39 -3 -7 0 -13 5 -13
6 0 17 -3 26 -6 11 -4 16 -1 16 10 0 9 -4 16 -10 16 -5 0 -6 7 -3 17 4 11 3
14 -5 9 -7 -4 -12 -2 -12 3 0 14 6 14 31 1 21 -12 26 2 7 17 -16 12 -55 23
-62 16z"/>
<path d="M263 434 c-18 -19 -31 -35 -30 -35 1 -1 24 -3 50 -4 57 -3 68 11 40
49 -10 14 -20 25 -23 25 -3 -1 -19 -16 -37 -35z m47 1 c0 -8 -4 -15 -10 -15
-5 0 -10 7 -10 15 0 8 5 15 10 15 6 0 10 -7 10 -15z"/>
<path d="M1250 385 c-10 -12 -8 -20 12 -44 27 -36 39 -38 63 -11 19 21 14 50
-10 50 -8 0 -15 5 -15 10 0 15 -36 12 -50 -5z m35 -5 c3 -5 1 -10 -4 -10 -6 0
-11 5 -11 10 0 6 2 10 4 10 3 0 8 -4 11 -10z m30 -30 c3 -5 1 -10 -4 -10 -6 0
-11 5 -11 10 0 6 2 10 4 10 3 0 8 -4 11 -10z"/>
<path d="M326 364 c-22 -21 -20 -51 4 -64 38 -21 80 22 60 61 -13 23 -43 25
-64 3z m44 -17 c0 -14 -20 -37 -32 -37 -12 0 -10 24 4 38 16 16 28 15 28 -1z"/>
<path d="M1188 323 l-27 -28 31 -30 c30 -29 30 -30 23 -5 -7 23 -7 24 10 10
17 -14 17 -13 10 10 -7 22 -6 23 9 11 13 -11 16 -11 16 1 0 16 -28 58 -39 58
-4 0 -19 -12 -33 -27z"/>
<path d="M401 295 c-19 -32 -19 -36 -3 -33 11 2 18 -5 20 -19 2 -13 10 -23 18
-23 11 0 13 6 9 20 -5 14 -2 20 9 20 22 0 20 33 -2 53 -25 23 -27 22 -51 -18z
m49 -9 c0 -3 -4 -8 -10 -11 -5 -3 -10 -1 -10 4 0 6 5 11 10 11 6 0 10 -2 10
-4z"/>
<path d="M485 271 c-3 -6 2 -14 12 -20 17 -9 17 -10 0 -28 -9 -11 -17 -25 -17
-31 0 -21 19 -13 37 16 10 15 21 30 26 33 4 3 -3 13 -17 22 -29 20 -33 20 -41
8z"/>
<path d="M1110 266 c-17 -21 -9 -56 17 -73 20 -13 23 -12 38 11 16 24 16 28 1
51 -19 28 -38 32 -56 11z m38 -41 c3 -25 2 -27 -12 -16 -19 16 -22 55 -3 49 6
-3 14 -17 15 -33z"/>
<path d="M1026 218 c-9 -12 -16 -30 -16 -39 0 -19 42 -40 59 -29 9 5 6 9 -8
13 -23 6 -27 27 -11 58 15 27 -5 25 -24 -3z"/>
<path d="M563 199 c-11 -28 -10 -33 10 -49 12 -10 26 -16 31 -13 5 4 2 11 -7
18 -23 16 -21 28 2 20 17 -5 26 4 30 30 0 6 -3 10 -8 10 -5 0 -13 3 -17 8 -15
15 -30 6 -41 -24z"/>
<path d="M651 196 c-9 -11 -6 -18 16 -35 28 -21 28 -21 6 -27 -29 -8 -20 -24
13 -24 31 0 44 28 21 45 -21 15 -22 29 -2 21 8 -3 15 -1 15 4 0 6 -8 10 -18
10 -10 0 -23 5 -28 10 -8 8 -14 6 -23 -4z"/>
<path d="M792 152 c-9 -30 -9 -39 3 -51 12 -12 17 -12 39 3 30 19 33 37 9 58
-34 29 -40 28 -51 -10z m33 -30 c-6 -15 -8 -15 -15 3 -10 28 0 53 12 30 5 -9
7 -24 3 -33z"/>
<path d="M874 149 c0 -30 5 -39 18 -39 9 0 23 -3 32 -6 9 -3 16 -2 16 4 0 5
-10 13 -22 17 l-23 8 23 4 c24 5 29 18 10 26 -10 4 -10 6 0 6 28 2 10 17 -22
18 -33 1 -33 0 -32 -38z"/>
</g>
</svg>
