<?xml version="1.0" standalone="no"?>
<!DOCTYPE svg PUBLIC "-//W3C//DTD SVG 20010904//EN"
 "http://www.w3.org/TR/2001/REC-SVG-20010904/DTD/svg10.dtd">
<svg version="1.0" xmlns="http://www.w3.org/2000/svg"
 width="225.000000pt" height="224.000000pt" viewBox="0 0 225.000000 224.000000"
 preserveAspectRatio="xMidYMid meet">

<g transform="translate(0.000000,224.000000) scale(0.100000,-0.100000)"
fill="#000000" stroke="none">
<path d="M0 1120 l0 -1120 1125 0 1125 0 0 1120 0 1120 -1125 0 -1125 0 0
-1120z m1256 1089 c146 -20 315 -85 456 -175 96 -61 261 -228 322 -326 45 -72
110 -212 121 -261 3 -12 12 -51 21 -87 23 -95 24 -330 0 -438 -37 -173 -88
-289 -183 -417 -219 -293 -533 -455 -883 -455 -305 0 -574 111 -785 325 -328
332 -409 821 -204 1238 94 192 230 333 449 464 47 29 173 78 251 99 156 41
300 52 435 33z"/>
<path d="M959 2148 c-6 -12 -20 -31 -30 -42 -11 -11 -19 -23 -19 -28 0 -4 -7
-8 -15 -8 -20 0 -19 -21 3 -59 11 -21 25 -31 41 -31 21 0 23 3 18 30 -5 22 -3
30 7 30 8 0 21 2 28 5 9 4 18 -5 24 -22 l11 -28 12 30 c14 34 8 64 -22 111
-26 39 -42 43 -58 12z m35 -63 c3 -9 0 -15 -9 -15 -8 0 -15 7 -15 15 0 8 4 15
9 15 5 0 11 -7 15 -15z"/>
<path d="M1250 2145 c-27 -29 -15 -57 35 -81 19 -9 35 -20 35 -25 0 -16 -41
-30 -71 -24 -34 8 -38 -5 -7 -24 37 -23 78 -31 103 -19 47 21 44 62 -7 93
l-33 20 44 5 45 5 -62 36 -61 37 -21 -23z"/>
<path d="M777 2103 c-14 -4 -17 -10 -12 -26 4 -12 14 -48 23 -79 9 -32 20 -58
24 -58 15 0 30 84 21 125 -8 40 -20 48 -56 38z"/>
<path d="M1455 2082 c-3 -3 -5 -16 -5 -29 0 -13 -9 -41 -20 -63 -11 -22 -20
-43 -20 -49 0 -13 37 -2 51 15 20 25 32 16 26 -21 -3 -19 -2 -37 3 -40 20 -12
57 8 70 38 13 30 22 107 12 107 -2 0 -17 -9 -34 -21 -33 -24 -45 -20 -29 9 18
34 13 49 -19 54 -17 3 -32 2 -35 0z"/>
<path d="M619 2047 c-19 -12 -48 -32 -64 -45 l-29 -23 30 -27 c17 -15 37 -42
45 -60 20 -45 29 -40 29 16 1 43 2 46 15 28 8 -11 15 -28 15 -38 0 -10 5 -18
10 -18 6 0 10 21 11 48 l0 47 16 -32 c22 -44 33 -41 33 8 0 48 -36 119 -59
119 -9 0 -32 -11 -52 -23z"/>
<path d="M1642 1959 c-53 -34 -81 -109 -46 -123 55 -21 165 11 193 56 12 20
11 24 -15 45 -27 22 -30 22 -39 6 -5 -10 -26 -33 -45 -53 -30 -30 -35 -33 -38
-16 -4 20 12 59 37 89 21 25 -5 23 -47 -4z"/>
<path d="M440 1926 c-6 -16 -17 -26 -30 -26 -26 0 -53 -51 -30 -58 8 -3 34
-26 58 -51 l43 -46 17 22 c9 12 29 27 45 32 17 7 27 18 27 30 0 31 -16 33 -48
6 -34 -29 -42 -31 -42 -10 0 8 9 19 20 25 21 11 28 50 8 50 -6 0 -20 -7 -30
-17 -10 -9 -18 -11 -18 -5 0 6 7 15 16 20 20 11 14 46 -9 50 -11 2 -20 -6 -27
-22z"/>
<path d="M1010 1924 c-299 -53 -517 -210 -628 -452 -51 -112 -71 -214 -68
-352 6 -272 117 -487 326 -635 97 -68 198 -112 315 -136 115 -24 206 -24 325
1 346 71 595 366 626 742 28 354 -211 698 -561 808 -68 21 -270 36 -335 24z
m105 -68 c10 -7 19 -24 21 -37 1 -13 3 -28 3 -32 1 -5 6 -5 12 -1 6 3 8 17 5
30 -7 25 5 31 38 18 20 -8 21 -33 1 -40 -12 -5 -13 -10 -4 -20 14 -17 3 -35
-16 -27 -21 7 -19 -16 5 -71 14 -31 29 -48 45 -52 37 -9 45 -54 9 -54 -18 0
-67 67 -91 125 -15 38 -22 45 -45 45 -15 0 -30 -5 -33 -11 -10 -16 4 -24 17
-11 20 20 24 14 23 -34 0 -44 -2 -47 -45 -69 -24 -12 -50 -20 -57 -18 -19 7
-16 43 7 80 l19 32 -26 3 c-34 4 -41 25 -11 30 17 2 23 10 23 27 0 19 8 27 35
36 29 10 35 17 33 39 -2 29 5 32 32 12z m55 -326 c20 -5 51 -26 70 -45 39 -40
72 -45 110 -15 36 28 61 25 112 -14 57 -44 78 -94 78 -184 0 -37 5 -84 11
-105 7 -26 7 -54 0 -93 -11 -57 -11 -57 24 -95 40 -45 43 -66 15 -125 -24 -48
-135 -158 -151 -149 -5 4 -14 17 -19 30 -8 20 -13 22 -37 16 -16 -4 -30 -16
-32 -27 -6 -36 -22 -44 -88 -44 -49 0 -82 7 -138 31 -64 26 -89 31 -182 34
-141 4 -228 30 -284 86 -37 37 -49 59 -31 59 5 0 18 -13 30 -30 13 -16 41 -40
65 -52 38 -19 58 -21 228 -22 133 -1 190 -5 201 -14 12 -10 22 -9 52 3 33 14
49 35 26 35 -20 0 -10 29 18 50 23 19 36 21 90 17 62 -5 63 -4 97 32 42 43 89
127 80 141 -4 6 -11 8 -16 4 -7 -4 -8 9 -4 37 4 25 2 55 -4 69 -11 24 -11 23
-8 -9 4 -35 -52 -194 -76 -218 -6 -7 -33 -18 -59 -24 -40 -11 -52 -11 -80 3
-33 15 -34 15 -71 -17 -39 -34 -90 -48 -139 -38 -32 6 -48 34 -48 81 0 21 -2
24 -10 12 -5 -8 -10 -25 -10 -36 0 -12 -9 -33 -21 -48 -19 -25 -26 -27 -82
-24 -54 3 -63 6 -74 28 l-13 25 -6 -22 c-6 -20 -13 -23 -58 -23 -50 0 -54 2
-78 40 -15 21 -29 54 -33 72 -10 45 -15 51 -31 37 -20 -17 -23 -11 -33 67 -14
122 9 171 96 204 73 27 81 34 93 80 17 64 39 75 139 73 l86 -3 35 46 c32 44
76 73 110 74 8 0 31 -5 50 -10z m-466 -949 c19 -83 19 -81 6 -81 -5 0 -10 9
-10 19 0 30 -27 34 -34 5 -4 -14 -10 -23 -15 -20 -9 6 19 146 30 146 4 0 15
-31 23 -69z m223 47 c-3 -8 -6 -5 -6 6 -1 11 2 17 5 13 3 -3 4 -12 1 -19z
m163 12 c0 -5 -5 -10 -11 -10 -5 0 -7 5 -4 10 3 6 8 10 11 10 2 0 4 -4 4 -10z
m56 -8 c-4 -10 1 -27 9 -38 13 -18 14 -18 15 -1 0 13 6 17 23 15 19 -3 22 -10
25 -55 2 -32 -1 -53 -7 -53 -6 0 -11 21 -11 48 -1 38 -3 43 -11 29 -6 -10 -8
-29 -5 -42 3 -13 2 -27 -4 -30 -6 -4 -11 9 -11 32 -2 29 -3 32 -6 11 -2 -14
-11 -32 -19 -38 -36 -31 -61 52 -28 98 8 12 12 22 9 22 -3 0 -3 5 0 10 11 17
27 11 21 -8z m251 3 c8 -22 -6 -33 -18 -15 -8 13 -10 13 -19 0 -13 -19 -13
-71 0 -90 9 -13 12 -13 21 3 5 9 17 17 26 17 9 0 22 -8 29 -17 12 -17 13 -17
20 1 5 13 1 24 -13 35 -11 9 -23 23 -25 31 -7 20 9 50 27 50 17 0 39 -36 26
-44 -5 -3 -12 2 -15 11 -5 12 -10 13 -18 5 -9 -9 -5 -18 15 -36 27 -25 32 -41
21 -70 -8 -21 -40 -20 -54 2 -10 16 -10 16 -20 0 -16 -27 -49 -22 -60 8 -21
55 -4 124 30 124 11 0 23 -7 27 -15z m155 3 c0 -7 2 -41 2 -75 2 -67 -8 -83
-19 -33 -8 36 -25 40 -25 5 0 -14 -4 -25 -10 -25 -11 0 -14 123 -3 133 11 12
53 8 55 -5z m-242 -29 c15 -56 20 -109 10 -109 -5 0 -10 9 -10 20 0 27 -24 25
-38 -2 -10 -22 -11 -22 -11 5 -1 43 20 118 32 114 6 -2 14 -14 17 -28z m-250
-21 c0 -6 -7 -8 -15 -4 -12 4 -15 -3 -15 -32 0 -27 3 -33 10 -22 11 18 25 6
16 -15 -3 -9 -14 -15 -23 -13 -13 2 -19 15 -21 46 -4 50 13 79 34 61 8 -6 14
-16 14 -21z m-290 6 c0 -8 -4 -12 -10 -9 -15 9 -12 -4 4 -21 19 -18 30 -18 23
0 -8 21 17 50 37 43 11 -5 16 -19 16 -52 0 -51 -23 -72 -46 -41 -12 16 -13 16
-22 0 -10 -18 -42 -13 -42 7 0 6 7 9 15 5 9 -3 15 0 15 8 0 8 -7 16 -15 20 -8
3 -15 17 -15 31 0 18 5 25 20 25 11 0 20 -7 20 -16z m134 0 c4 -12 1 -14 -14
-9 -17 5 -20 2 -20 -24 0 -31 15 -50 23 -29 2 7 7 10 11 7 12 -11 -6 -40 -23
-37 -19 4 -31 64 -19 91 11 21 34 22 42 1z m35 9 c-1 -5 -1 -20 0 -35 l1 -28
20 20 c24 24 25 31 5 24 -10 -4 -15 0 -15 11 0 11 7 15 23 13 19 -3 22 -10 25
-55 3 -51 2 -53 -22 -53 -18 0 -26 5 -26 17 0 15 -2 14 -15 -3 -13 -17 -14
-14 -15 39 0 31 4 57 10 57 6 0 9 -3 9 -7z m151 -48 c0 -30 -4 -55 -10 -55 -5
0 -10 25 -10 55 0 30 5 55 10 55 6 0 10 -25 10 -55z"/>
<path d="M1060 1775 c-10 -12 -10 -15 3 -15 23 0 47 11 47 21 0 15 -37 10 -50
-6z"/>
<path d="M1036 1664 c-4 -9 -4 -19 -1 -23 8 -7 41 14 38 25 -4 17 -30 15 -37
-2z"/>
<path d="M1225 1393 c-3 -21 -9 -56 -14 -78 -12 -51 0 -65 24 -28 26 38 34
143 12 143 -11 0 -18 -12 -22 -37z"/>
<path d="M1321 1406 c-8 -9 -16 -38 -19 -65 -4 -42 -1 -50 18 -64 28 -20 43
-13 34 16 -4 12 -10 46 -13 76 -5 48 -8 52 -20 37z"/>
<path d="M1004 1355 c-3 -20 0 -52 7 -77 12 -36 19 -43 47 -49 21 -4 32 -3 32
5 0 14 -67 156 -74 156 -3 0 -8 -16 -12 -35z"/>
<path d="M740 1244 c0 -32 24 -74 36 -62 7 7 -12 65 -28 83 -4 5 -8 -4 -8 -21z"/>
<path d="M1236 1203 c-3 -16 -9 -75 -12 -132 -6 -87 -5 -103 7 -99 10 3 15 26
17 84 1 49 8 91 19 110 17 34 12 64 -11 64 -7 0 -16 -12 -20 -27z"/>
<path d="M985 1167 c-3 -18 -1 -48 3 -67 l9 -35 11 53 c15 67 15 69 -3 75 -10
4 -16 -3 -20 -26z"/>
<path d="M774 1104 c3 -9 6 -30 7 -47 l1 -32 9 35 c9 39 5 60 -12 60 -6 0 -8
-7 -5 -16z"/>
<path d="M1127 583 c-11 -10 -8 -53 3 -53 6 0 10 14 10 30 0 31 -2 35 -13 23z"/>
<path d="M1510 611 c0 -12 6 -21 16 -21 9 0 14 7 12 17 -5 25 -28 28 -28 4z"/>
<path d="M805 579 c-3 -8 -2 -26 3 -39 l9 -25 7 22 c9 28 -9 67 -19 42z"/>
<path d="M965 541 c-3 -5 -1 -12 5 -16 5 -3 10 1 10 9 0 18 -6 21 -15 7z"/>
<path d="M1773 1801 c-29 -30 -53 -57 -53 -60 0 -4 48 5 75 15 20 7 20 7 1
-14 -11 -12 -25 -22 -33 -22 -7 0 -13 -5 -13 -11 0 -8 15 -9 48 -5 l47 7 -30
-25 -30 -25 36 -1 c37 0 93 31 112 62 11 17 -16 55 -78 109 l-30 26 -52 -56z"/>
<path d="M310 1768 c-19 -5 -39 -13 -43 -17 -13 -13 39 -118 67 -136 25 -17
28 -17 46 0 11 10 27 37 36 60 19 50 9 80 -32 95 -29 11 -28 11 -74 -2z m42
-50 c20 -16 33 -58 19 -58 -6 0 -28 16 -49 35 -36 34 -37 34 -11 35 14 0 32
-6 41 -12z"/>
<path d="M1931 1647 c-6 -8 -31 -22 -55 -32 -25 -10 -43 -22 -40 -27 9 -14
103 -9 134 7 32 16 38 33 18 53 -16 16 -43 15 -57 -1z"/>
<path d="M160 1599 c0 -6 7 -35 16 -64 8 -30 14 -62 12 -72 -2 -14 6 -19 40
-24 29 -4 46 -1 53 8 14 16 4 43 -16 43 -19 0 -19 20 -1 46 12 15 17 17 27 7
7 -7 17 -13 21 -13 16 0 7 22 -21 51 -25 24 -37 29 -80 29 -30 0 -51 -4 -51
-11z m82 -51 c-9 -9 -15 -9 -24 0 -9 9 -7 12 12 12 19 0 21 -3 12 -12z"/>
<path d="M2017 1553 c-19 -5 -20 -24 -2 -65 5 -14 -3 -19 -54 -29 -34 -6 -61
-14 -61 -16 0 -2 5 -13 10 -24 14 -25 56 -25 99 2 28 17 39 19 58 10 13 -6 25
-11 27 -11 7 0 -42 134 -50 136 -5 1 -17 -1 -27 -3z"/>
<path d="M80 1390 c0 -57 48 -120 92 -120 27 0 76 51 83 85 5 23 4 26 -4 14
-6 -9 -24 -22 -41 -29 -25 -11 -34 -10 -56 5 -14 9 -33 30 -42 46 -22 37 -32
37 -32 -1z"/>
<path d="M2055 1389 c-4 -6 -4 -25 -1 -43 6 -31 4 -34 -25 -40 -17 -3 -42 -6
-55 -6 -24 0 -30 -14 -18 -44 8 -22 42 -20 89 4 26 13 50 18 68 14 29 -6 32
-3 18 24 -5 9 -14 36 -20 60 -9 31 -17 42 -31 42 -10 0 -22 -5 -25 -11z"/>
<path d="M130 1231 c-14 -5 -40 -16 -59 -25 l-34 -18 52 -50 c28 -27 51 -56
51 -64 0 -17 -4 -17 45 0 31 11 41 20 43 40 3 23 0 26 -28 26 -28 0 -31 3 -28
27 2 16 10 27 21 29 31 4 30 12 -2 28 -16 9 -31 16 -33 15 -2 0 -14 -4 -28 -8z
m20 -62 c0 -5 -7 -9 -15 -9 -15 0 -20 12 -9 23 8 8 24 -1 24 -14z"/>
<path d="M2035 1199 c-18 -5 -40 -24 -53 -45 l-23 -36 23 -34 c13 -18 35 -36
49 -39 87 -19 157 77 97 132 -30 27 -56 33 -93 22z m80 -59 c3 -5 -3 -18 -13
-28 -13 -13 -29 -17 -60 -14 -45 4 -53 17 -24 38 20 16 88 19 97 4z"/>
<path d="M1955 889 c-4 -6 -4 -13 -1 -16 3 -4 -1 -14 -10 -24 -23 -25 -12 -46
28 -52 18 -3 43 -8 56 -12 18 -6 22 -4 22 13 0 11 7 25 15 32 8 7 15 19 15 26
0 22 -31 16 -37 -6 -7 -25 -25 -27 -22 -2 3 29 -1 42 -11 42 -5 0 -10 -8 -11
-17 0 -14 -2 -13 -9 5 -10 24 -25 29 -35 11z"/>
<path d="M170 883 c-36 -13 -40 -24 -23 -53 21 -36 58 -54 82 -40 22 11 31 32
31 71 0 27 -3 29 -37 28 -21 0 -45 -3 -53 -6z m70 -21 c0 -16 -25 -32 -50 -32
l-25 1 24 19 c24 20 51 27 51 12z"/>
<path d="M1893 735 c-19 -39 -20 -45 -6 -56 13 -11 18 -10 29 6 8 10 14 23 14
27 0 5 18 -3 39 -16 40 -26 51 -25 51 4 0 16 -17 26 -72 44 -10 3 -18 12 -18
21 0 27 -14 15 -37 -30z"/>
<path d="M241 750 c-13 -11 -32 -20 -42 -20 -20 0 -26 -15 -9 -25 6 -3 10 -19
10 -36 0 -23 4 -29 21 -29 15 0 19 4 15 15 -3 8 -9 22 -12 30 -4 10 0 15 10
15 9 0 16 -8 16 -20 0 -20 24 -28 35 -10 3 5 12 7 19 4 7 -3 16 2 20 11 3 9
-1 18 -10 22 -8 3 -14 13 -12 22 3 20 -10 41 -25 41 -7 -1 -23 -10 -36 -20z"/>
<path d="M330 636 c0 -7 -18 -28 -40 -46 -22 -18 -40 -39 -40 -46 0 -18 26
-24 46 -10 13 10 24 10 44 3 58 -22 77 12 38 70 -25 36 -48 50 -48 29z m28
-50 c3 -12 -1 -17 -10 -14 -7 3 -15 13 -16 22 -3 12 1 17 10 14 7 -3 15 -13
16 -22z"/>
<path d="M1843 629 c4 -13 7 -41 7 -61 0 -32 4 -39 25 -44 14 -3 32 -3 41 0
15 6 15 8 -1 26 -20 22 -11 44 16 37 11 -3 19 0 19 7 0 21 -33 44 -74 52 -38
7 -39 6 -33 -17z m57 -23 c0 -3 -4 -8 -10 -11 -5 -3 -10 -1 -10 4 0 6 5 11 10
11 6 0 10 -2 10 -4z"/>
<path d="M1763 540 c-44 -18 -45 -42 -1 -88 49 -53 81 -52 104 4 17 41 12 54
-22 54 -17 0 -24 5 -24 20 0 22 -19 25 -57 10z m27 -36 c0 -8 -4 -12 -10 -9
-5 3 -10 10 -10 16 0 5 5 9 10 9 6 0 10 -7 10 -16z m45 -34 c3 -5 1 -10 -4
-10 -6 0 -11 5 -11 10 0 6 2 10 4 10 3 0 8 -4 11 -10z"/>
<path d="M382 487 c-25 -27 -29 -69 -8 -86 24 -20 77 -9 99 20 17 24 18 30 6
55 -19 39 -66 44 -97 11z m68 -26 c0 -16 -38 -51 -55 -51 -11 0 -4 35 12 52
21 23 43 23 43 -1z"/>
<path d="M1657 432 c-20 -21 -37 -40 -37 -44 0 -10 68 -77 73 -71 3 3 2 16 -3
29 -6 16 -6 24 1 24 6 0 13 -9 16 -20 3 -11 10 -20 15 -20 6 0 7 11 4 25 -4
14 -2 25 4 25 5 0 10 -4 10 -10 0 -5 5 -10 11 -10 15 0 4 56 -16 87 -21 32
-35 29 -78 -15z"/>
<path d="M510 419 c0 -6 -9 -22 -20 -36 -26 -34 -25 -43 5 -43 21 0 25 -5 25
-29 0 -17 6 -31 16 -35 24 -9 24 -9 24 29 0 24 5 35 15 35 22 0 19 53 -3 73
-21 19 -62 23 -62 6z m45 -38 c3 -5 1 -12 -5 -16 -5 -3 -10 1 -10 9 0 18 6 21
15 7z"/>
<path d="M620 355 c-10 -12 -8 -18 11 -34 l24 -19 -30 -32 c-25 -26 -27 -33
-15 -40 8 -5 18 -10 21 -10 10 0 36 34 44 58 4 13 16 27 27 31 19 7 17 10 -18
32 -22 13 -42 25 -45 27 -3 1 -12 -4 -19 -13z"/>
<path d="M1533 348 c-32 -41 -18 -89 30 -109 28 -12 32 -11 54 15 25 30 24 56
-5 89 -18 20 -65 23 -79 5z m67 -75 c0 -30 -20 -26 -39 9 -9 15 -11 33 -7 44
7 18 8 18 27 -5 10 -13 19 -34 19 -48z"/>
<path d="M1420 282 c-36 -36 -39 -74 -8 -96 24 -17 64 -21 72 -7 3 4 -6 13
-19 19 -19 9 -25 19 -25 45 0 18 5 38 12 45 6 6 9 15 5 18 -3 4 -20 -7 -37
-24z"/>
<path d="M743 283 c-3 -10 -12 -33 -19 -52 -17 -41 -17 -41 -1 -41 7 0 23 -9
35 -21 12 -11 27 -17 32 -14 17 10 11 24 -16 38 -18 9 -23 16 -15 21 7 4 18 2
26 -4 15 -13 39 -4 30 10 -3 5 2 13 11 18 22 12 11 44 -12 35 -10 -4 -20 0
-26 10 -12 22 -37 22 -45 0z"/>
<path d="M862 248 c-21 -21 -13 -38 24 -54 43 -18 40 -37 -7 -44 -33 -5 -33
-6 -12 -18 28 -15 75 -16 91 0 20 20 14 37 -20 58 l-33 20 28 0 c35 0 35 15 0
28 -16 5 -35 13 -43 16 -9 4 -21 1 -28 -6z"/>
<path d="M1195 228 c-2 -7 -5 -34 -7 -59 l-3 -47 45 -5 c25 -3 48 -3 53 0 14
8 -4 23 -29 23 -13 0 -24 5 -24 10 0 6 12 10 26 10 21 0 25 4 21 20 -3 11 -1
20 4 20 12 0 11 27 -1 35 -6 4 -17 2 -25 -5 -9 -7 -15 -8 -20 0 -9 14 -35 13
-40 -2z"/>
<path d="M1072 191 c-7 -21 -12 -50 -12 -65 0 -23 4 -26 33 -26 77 0 102 60
44 104 -19 15 -38 26 -44 26 -5 0 -15 -17 -21 -39z m47 -13 c10 -25 -4 -62
-20 -53 -16 11 -10 75 8 75 2 0 7 -10 12 -22z"/>
</g>
</svg>
